HIERARCHY
ROOT joint_Root
{
  OFFSET 0 0 0
  CHANNELS 6 Xposition Yposition Zposition Zrotation Xrotation Yrotation
  JOINT Hips
  {
    OFFSET 0.847027 93.984 -452.225
    CHANNELS 6 Xposition Yposition Zposition Zrotation Xrotation Yrotation
    JOINT Spine
    {
      OFFSET 15.7357 0 0
      CHANNELS 6 Xposition Yposition Zposition Zrotation Xrotation Yrotation
      JOINT Chest
      {
        OFFSET 8.98455 -0.406207 0
        CHANNELS 6 Xposition Yposition Zposition Zrotation Xrotation Yrotation
        JOINT Neck
        {
          OFFSET 16.3773 0 0
          CHANNELS 6 Xposition Yposition Zposition Zrotation Xrotation Yrotation
          JOINT Head
          {
            OFFSET 6.45672 0 0
            CHANNELS 6 Xposition Yposition Zposition Zrotation Xrotation Yrotation
            End Site
            {
              OFFSET 0 0 0
            }
          }
        }
        JOINT Shoulder_L
        {
          OFFSET 12.9942 -0.242716 4.98039
          CHANNELS 6 Xposition Yposition Zposition Zrotation Xrotation Yrotation
          JOINT UpperArm_L
          {
            OFFSET 5.34809 0 0
            CHANNELS 6 Xposition Yposition Zposition Zrotation Xrotation Yrotation
            JOINT LowerArm_L
            {
              OFFSET 24.3286 1.87007e-05 0
              CHANNELS 6 Xposition Yposition Zposition Zrotation Xrotation Yrotation
              JOINT Hand_L
              {
                OFFSET 22.2916 0 0
                CHANNELS 6 Xposition Yposition Zposition Zrotation Xrotation Yrotation
                End Site
                {
                  OFFSET 0 0 0
                }
              }
            }
          }
        }
        JOINT Shoulder_R
        {
          OFFSET 12.9945 -0.242716 -4.98039
          CHANNELS 6 Xposition Yposition Zposition Zrotation Xrotation Yrotation
          JOINT UpperArm_R
          {
            OFFSET -5.34813 0 0
            CHANNELS 6 Xposition Yposition Zposition Zrotation Xrotation Yrotation
            JOINT LowerArm_R
            {
              OFFSET -24.3289 0.000322201 0
              CHANNELS 6 Xposition Yposition Zposition Zrotation Xrotation Yrotation
              JOINT Hand_R
              {
                OFFSET -22.2915 -0.000108084 0
                CHANNELS 6 Xposition Yposition Zposition Zrotation Xrotation Yrotation
                End Site
                {
                  OFFSET 0 0 0
                }
              }
            }
          }
        }
      }
    }
    JOINT UpperLeg_L
    {
      OFFSET -2.19248 -6.46944 0
      CHANNELS 6 Xposition Yposition Zposition Zrotation Xrotation Yrotation
      JOINT LowerLeg_L
      {
        OFFSET 39.0811 0 -1.23785e-05
        CHANNELS 6 Xposition Yposition Zposition Zrotation Xrotation Yrotation
        JOINT Foot_L
        {
          OFFSET 40.9854 0 -1.26872e-05
          CHANNELS 6 Xposition Yposition Zposition Zrotation Xrotation Yrotation
          JOINT Toes_L
          {
            OFFSET 11.7543 0 0
            CHANNELS 6 Xposition Yposition Zposition Zrotation Xrotation Yrotation
            End Site
            {
              OFFSET 0 0 0
            }
          }
        }
      }
    }
    JOINT UpperLeg_R
    {
      OFFSET -2.19251 6.46944 0
      CHANNELS 6 Xposition Yposition Zposition Zrotation Xrotation Yrotation
      JOINT LowerLeg_R
      {
        OFFSET -39.0811 -0.00228153 -0.0401928
        CHANNELS 6 Xposition Yposition Zposition Zrotation Xrotation Yrotation
        JOINT Foot_R
        {
          OFFSET -40.9854 0 0
          CHANNELS 6 Xposition Yposition Zposition Zrotation Xrotation Yrotation
          JOINT Toes_R
          {
            OFFSET -11.7543 0 0
            CHANNELS 6 Xposition Yposition Zposition Zrotation Xrotation Yrotation
            End Site
            {
              OFFSET 0 0 0
            }
          }
        }
      }
    }
  }
}
MOTION
Frames:	4
Frame Time:	0.0333333
0 0 0 0 0 -0 -187.058 80.4348 215.237 86.7105 9.39609 -14.8002 15.7357 5.1072e-06 -5.51764e-07 81.804 82.5479 -76.8266 8.98455 -0.406207 -4.3199e-07 7.1028 -2.14535 10.0786 16.3773 -1.3905e-06 -6.99897e-07 -4.07576 -3.53888 1.63572 6.45672 -1.25837e-06 -1.02172e-07 -12.7283 -1.86353 5.18022 12.9942 -0.242716 4.98039 -91.1257 4.88713 -92.0151 5.34809 -7.22636e-06 -6.2814e-07 -75.3229 13.0077 2.01146 24.3286 1.87007e-05 4.90208e-06 -12.7148 -3.96847 -73.0363 22.2916 -9.88446e-07 4.63217e-06 24.9 5.61517 -12.4826 12.9945 -0.242716 -4.98039 86.4033 11.2034 -87.0725 -5.34813 -1.25947e-06 -3.79883e-06 -53.5208 7.86194 14.7485 -24.3289 0.000322201 -8.65921e-06 -3.69854 0.952858 -104.412 -22.2915 -0.000108084 -4.47941e-06 16.7733 5.49137 -6.18941 -2.19248 -6.46944 -1.22533e-07 -169.235 -0.719395 -11.8205 39.0811 -6.73843e-06 -1.23785e-05 0.327238 0.0101538 93.2889 40.9854 -6.48686e-06 -1.26872e-05 -13.9454 -0.768502 -11.0142 11.7543 -2.30145e-07 3.05095e-06 0.118354 -0.194851 -20.0034 -2.19251 6.46944 -1.45247e-06 -166.319 13.9173 142.971 -39.0811 -0.00228153 -0.0401928 0.0989182 -0.0326542 62.035 -40.9854 7.72618e-06 5.99936e-06 3.86518 -7.28818 -91.2496 -11.7543 -5.6619e-06 -5.58687e-06 -0.530852 -0.698102 -17.5886 
0 0 0 0 0 -0 -187.014 80.5337 222.67 87.4168 7.67192 -14.5154 15.7357 5.1072e-06 -5.51764e-07 88.2232 81.8651 -83.9365 8.98455 -0.406207 -4.3199e-07 8.52855 -0.472986 8.60101 16.3773 -1.3905e-06 -6.99897e-07 -4.51585 -3.03352 1.60074 6.45672 -1.25837e-06 -1.02172e-07 -12.5324 -1.70355 4.21061 12.9942 -0.242716 4.98039 -90.7173 3.26111 -92.5873 5.34809 -7.22636e-06 -6.2814e-07 -73.076 9.55067 8.24866 24.3286 1.87007e-05 4.90208e-06 -19.4943 -6.96732 -71.0897 22.2916 -9.88446e-07 4.63217e-06 23.7448 5.59574 -11.0927 12.9945 -0.242716 -4.98039 87.3759 9.42875 -89.3824 -5.34813 -1.25947e-06 -3.79883e-06 -55.0633 7.63408 -4.93312 -24.3289 0.000322201 -8.65921e-06 4.30955 -1.08204 -104.029 -22.2915 -0.000108084 -4.47941e-06 15.9597 5.49546 -6.35159 -2.19248 -6.46944 -1.22533e-07 -170.824 1.6452 -24.821 39.0811 -6.73843e-06 -1.23785e-05 -0.0180111 -0.0199064 105.938 40.9854 -6.48686e-06 -1.26872e-05 -11.7318 4.25641 -11.8916 11.7543 -2.30145e-07 3.05095e-06 0.109651 -0.179588 -19.7393 -2.19251 6.46944 -1.45247e-06 -168.62 15.4089 151.545 -39.0811 -0.00228153 -0.0401928 0.109526 -0.0366484 58.0323 -40.9854 7.72618e-06 5.99936e-06 3.6334 -4.30603 -93.0511 -11.7543 -5.6619e-06 -5.58687e-06 -0.222473 -0.688787 -19.8181 
0 0 0 0 0 -0 -186.666 82.1287 230.592 87.9315 4.43188 -14.7123 15.7357 5.1072e-06 -5.51765e-07 97.0372 81.1755 -93.9919 8.98455 -0.406207 -4.3199e-07 9.70374 2.20086 5.89973 16.3773 -1.3905e-06 -6.99897e-07 -4.22905 -2.98248 1.84747 6.45672 -1.25837e-06 -1.02172e-07 -12.2764 -3.09091 4.50392 12.9942 -0.242716 4.98039 -90.6422 2.63984 -91.3149 5.34809 -7.22636e-06 -6.2814e-07 -66.8963 12.946 15.6677 24.3286 1.87007e-05 4.90208e-06 -14.0027 -2.91957 -78.4987 22.2916 -9.88446e-07 4.63217e-06 18.7235 5.59383 -10.889 12.9945 -0.242716 -4.98039 88.8857 5.08498 -92.6417 -5.34813 -1.25947e-06 -3.79883e-06 -60.3711 6.88557 -19.0327 -24.3289 0.000322201 -8.65921e-06 8.58752 -2.60702 -106.769 -22.2915 -0.000108084 -4.47941e-06 15.5874 5.49146 -6.19585 -2.19248 -6.46944 -1.22533e-07 -172.697 1.46648 -36.99 39.0811 -6.73843e-06 -1.23785e-05 -0.164395 -0.0853999 112.559 40.9854 -6.48686e-06 -1.26872e-05 -6.08064 4.77067 -21.3699 11.7543 -2.30145e-07 3.05095e-06 0.113978 -0.18716 -19.8705 -2.19251 6.46944 -1.45247e-06 -172.078 15.7525 161.355 -39.0811 -0.00228153 -0.0401928 0.0703971 -0.0163013 49.4027 -40.9854 7.72618e-06 5.99936e-06 3.41243 0.303724 -87.6683 -11.7543 -5.6619e-06 -5.58687e-06 0.546097 -0.710762 -26.2967 
0 0 0 0 0 -0 -185.847 84.7802 239.044 89.8013 -0.0242726 -16.4388 15.7357 5.1072e-06 -5.51765e-07 105.378 80.4175 -104.517 8.98455 -0.406207 -4.3199e-07 10.7058 5.06801 1.24506 16.3773 -1.3905e-06 -6.99897e-07 -3.66853 -2.86017 2.22357 6.45672 -1.25837e-06 -1.02172e-07 -12.2147 -5.38659 4.84415 12.9942 -0.242716 4.98039 -90.3554 1.24732 -89.0748 5.34809 -7.22636e-06 -6.2814e-07 -61.9176 15.0753 20.0967 24.3286 1.87007e-05 4.90208e-06 -4.82069 -0.283583 -86.7548 22.2916 -9.88446e-07 4.63217e-06 12.6373 5.54729 -8.50228 12.9945 -0.242716 -4.98039 89.9902 0.0475993 -95.3557 -5.34813 -1.25947e-06 -3.79883e-06 -64.8019 6.68246 -29.8738 -24.3289 0.000322201 -8.65921e-06 4.83343 -1.72296 -109.588 -22.2915 -0.000108084 -4.47941e-06 16.9958 5.48321 -5.87446 -2.19248 -6.46944 -1.22533e-07 -177.455 0.0412955 -47.6103 39.0811 -6.73843e-06 -1.23785e-05 -0.241227 -0.114464 111.777 40.9854 -6.48686e-06 -1.26872e-05 1.5113 -1.00965 -32.6521 11.7543 -2.30145e-07 3.05095e-06 0.115247 -0.189378 -19.9088 -2.19251 6.46944 -1.45247e-06 -177.242 14.6779 169.365 -39.0811 -0.00228153 -0.0401928 0.047017 -0.00456188 39.0951 -40.9854 7.72618e-06 5.99936e-06 3.18985 3.86505 -76.4755 -11.7543 -5.6619e-06 -5.58687e-06 1.14355 -1.66124 -31.4332 
